<svg xmlns="http://www.w3.org/2000/svg" xmlns:xlink="http://www.w3.org/1999/xlink" width="210mm" height="297mm" contentScriptType="text/ecmascript" contentStyleType="text/css" preserveAspectRatio="xMidYMid meet" version="1.1" viewBox="-905 -648 1506 1477" zoomAndPan="magnify"><g id="edges"><path fill="none" stroke="#5fb607" stroke-width="4" d="M 455.295166,-41.912575 C 476.026703,-60.274803 534.667358,-56.720825 553.029602,-35.989277"/><path fill="none" stroke="#5fb607" stroke-width="5" d="M 476.118958,-4.553086 C 485.213867,-26.222454 531.360229,-45.084167 553.029602,-35.989277"/><path fill="none" stroke="#5fb607" stroke-width="3" d="M 476.118958,-4.553086 C 464.482300,-7.860226 451.988037,-30.275919 455.295166,-41.912575"/><path fill="none" stroke="#b60707" stroke-width="2.5" d="M 79.317276,42.918587 C 158.278183,-67.605453 442.505554,-114.950172 553.029602,-35.989277"/><path fill="none" stroke="#b60707" stroke-width="1.5" d="M 79.317276,42.918587 C 137.546616,-49.243225 363.133362,-100.141922 455.295166,-41.912575"/><path fill="none" stroke="#b60707" stroke-width="1.5" d="M 79.317276,42.918587 C 149.183273,-45.936092 387.264282,-74.419098 476.118958,-4.553086"/><path fill="none" stroke="#b6078a" stroke-width=".5" d="M 172.620361,399.541229 C 82.635223,346.877319 26.653366,132.903732 79.317276,42.918587"/><path fill="none" stroke="#b6078a" stroke-width="2" d="M 31.142715,784.914368 C -4.271578,762.296143 -23.465683,675.247314 -0.847456,639.833069"/><path fill="none" stroke="#b6078a" stroke-width="2" d="M 99.263840,772.926514 C 52.622887,766.330078 -7.443886,686.474060 -0.847456,639.833069"/><path fill="none" stroke="#b6078a" stroke-width="2" d="M 99.263840,772.926514 C 88.037186,788.948303 47.164513,796.140991 31.142715,784.914368"/><path fill="none" stroke="#b6078a" stroke-width="2" d="M -9.457441,729.371826 C -25.643196,709.742065 -20.477207,656.018860 -0.847456,639.833069"/><path fill="none" stroke="#b6078a" stroke-width="2" d="M -9.457441,729.371826 C 9.771098,732.360291 34.131191,765.685791 31.142715,784.914368"/><path fill="none" stroke="#b6078a" stroke-width="2" d="M -9.457441,729.371826 C 20.997755,716.338501 86.230515,742.471313 99.263840,772.926514"/><path fill="none" stroke="#b6078a" stroke-width="1.5" d="M 57.925858,709.506531 C 32.236504,707.326477 -3.027486,665.522400 -0.847456,639.833069"/><path fill="none" stroke="#b6078a" stroke-width="1.5" d="M 57.925858,709.506531 C 67.650795,729.944702 51.580914,775.189453 31.142715,784.914368"/><path fill="none" stroke="#b6078a" stroke-width="1.5" d="M 57.925858,709.506531 C 78.877449,713.922974 103.680244,751.974915 99.263840,772.926514"/><path fill="none" stroke="#b6078a" stroke-width="2" d="M 57.925858,709.506531 C 48.422256,726.956299 7.992278,738.875427 -9.457441,729.371826"/><path fill="none" stroke="#b6078a" stroke-width="1.5" d="M 92.407631,650.472900 C 71.628647,666.995911 15.675596,660.612061 -0.847456,639.833069"/><path fill="none" stroke="#b6078a" stroke-width="1.5" d="M 92.407631,650.472900 C 107.042946,689.614197 70.283997,770.279053 31.142715,784.914368"/><path fill="none" stroke="#b6078a" stroke-width="1.5" d="M 92.407631,650.472900 C 118.269592,673.592407 122.383324,747.064575 99.263840,772.926514"/><path fill="none" stroke="#b6078a" stroke-width="1.5" d="M 92.407631,650.472900 C 87.814400,686.625732 26.695360,733.965088 -9.457441,729.371826"/><path fill="none" stroke="#b6078a" stroke-width="2.5" d="M 92.407631,650.472900 C 97.318001,669.175964 76.628937,704.596191 57.925858,709.506531"/><path fill="none" stroke="#b6078a" stroke-width="1.5" d="M 136.356720,708.207825 C 95.240936,721.973755 12.918427,680.948853 -0.847456,639.833069"/><path fill="none" stroke="#b6078a" stroke-width="1.5" d="M 136.356720,708.207825 C 130.655228,744.591919 67.526825,790.615845 31.142715,784.914368"/><path fill="none" stroke="#b6078a" stroke-width="1.5" d="M 136.356720,708.207825 C 141.881882,728.570129 119.626160,767.401367 99.263840,772.926514"/><path fill="none" stroke="#b6078a" stroke-width="1.5" d="M 136.356720,708.207825 C 111.426689,741.603455 23.938194,754.301880 -9.457441,729.371826"/><path fill="none" stroke="#b6078a" stroke-width="2" d="M 136.356720,708.207825 C 120.930290,724.153748 73.871773,724.932922 57.925858,709.506531"/><path fill="none" stroke="#b6078a" stroke-width="2" d="M 136.356720,708.207825 C 116.019920,705.450623 89.650467,670.809692 92.407631,650.472900"/><path fill="none" stroke="#b6078a" stroke-width="4.5" d="M 66.870987,437.803772 C -9.616798,356.337463 -2.149025,119.406372 79.317276,42.918587"/><path fill="none" stroke="#b6078a" stroke-width="1" d="M 66.870987,437.803772 C 80.368347,409.001404 143.817978,386.043854 172.620361,399.541229"/><path fill="none" stroke="#b6078a" stroke-width="1.5" d="M 66.870987,437.803772 C 93.733154,491.753326 53.102093,612.970886 -0.847456,639.833069"/><path fill="none" stroke="#b6078a" stroke-width="1.5" d="M 66.870987,437.803772 C 129.147461,514.371521 107.710487,722.637878 31.142715,784.914368"/><path fill="none" stroke="#b6078a" stroke-width="1.5" d="M 66.870987,437.803772 C 140.374115,498.349731 159.809814,699.423401 99.263840,772.926514"/><path fill="none" stroke="#b6078a" stroke-width="1.5" d="M 66.870987,437.803772 C 109.918915,511.383057 64.121857,686.323914 -9.457441,729.371826"/><path fill="none" stroke="#b6078a" stroke-width="2" d="M 66.870987,437.803772 C 119.422516,493.933350 114.055435,656.954956 57.925858,709.506531"/><path fill="none" stroke="#b6078a" stroke-width="2" d="M 66.870987,437.803772 C 114.512146,475.230255 129.834137,602.831787 92.407631,650.472900"/><path fill="none" stroke="#b6078a" stroke-width="2" d="M 66.870987,437.803772 C 134.848938,477.987427 176.540375,640.229858 136.356720,708.207825"/><path fill="none" stroke="#5f07b6" stroke-width="3.5" d="M 114.947693,-126.232841 C 141.651886,-85.276474 120.273643,16.214386 79.317276,42.918587"/><path fill="none" stroke="#5f07b6" stroke-width="1" d="M 114.947693,-126.232841 C 218.139679,-3.810173 189.293655,334.611816 66.870987,437.803772"/><path fill="none" stroke="#5f07b6" stroke-width="6" d="M 65.500114,-218.798996 C 120.607071,-169.218903 128.897354,-12.188363 79.317276,42.918587"/><path fill="none" stroke="#5f07b6" stroke-width=".5" d="M 65.500114,-218.798996 C 197.094864,-87.752602 197.917389,306.209045 66.870987,437.803772"/><path fill="none" stroke="#5f07b6" stroke-width="6.5" d="M 65.500114,-218.798996 C 93.902863,-210.175278 123.571404,-154.635590 114.947693,-126.232841"/><path fill="none" stroke="#b68a07" stroke-width="15.5" d="M -85.907631,18.669367 C -48.012802,-9.525772 51.122139,5.023758 79.317276,42.918587"/><path fill="none" stroke="#b68a07" stroke-width=".5" d="M -85.907631,18.669367 C 55.337135,125.890060 106.373245,498.588318 -0.847456,639.833069"/><path fill="none" stroke="#b68a07" stroke-width="2" d="M -85.907631,18.669367 C -74.717010,-50.482140 45.796185,-137.423462 114.947693,-126.232841"/><path fill="none" stroke="#b68a07" stroke-width=".5" d="M -85.907631,18.669367 C -103.119759,-59.105858 -12.275108,-201.586884 65.500114,-218.798996"/><path fill="none" stroke="#5f07b6" stroke-width="8.5" d="M -28.801874,-81.992874 C 17.804249,-78.634415 82.675735,-3.687536 79.317276,42.918587"/><path fill="none" stroke="#5f07b6" stroke-width="2.5" d="M -28.801874,-81.992874 C 94.292023,2.831882 151.695740,314.709869 66.870987,437.803772"/><path fill="none" stroke="#5f07b6" stroke-width=".5" d="M -28.801874,-81.992874 C -8.899953,-119.590782 77.349785,-146.134766 114.947693,-126.232841"/><path fill="none" stroke="#5f07b6" stroke-width="2.5" d="M -28.801874,-81.992874 C -37.302704,-128.214493 19.278494,-210.298172 65.500114,-218.798996"/><path fill="none" stroke="#5f07b6" stroke-width=".5" d="M -28.801874,-81.992874 C -20.090576,-50.439270 -54.354031,9.958069 -85.907631,18.669367"/><path fill="none" stroke="#07b633" stroke-width="4" d="M 241.329514,62.764393 C 204.957901,91.197678 107.750565,79.290199 79.317276,42.918587"/><path fill="none" stroke="#07b633" stroke-width=".5" d="M 241.329514,62.764393 C 158.351791,87.839218 -3.727051,0.984856 -28.801874,-81.992874"/><path fill="none" stroke="#b60707" stroke-width="1" d="M 330.092896,319.665741 C 224.588348,314.471436 74.122978,148.423157 79.317276,42.918587"/><path fill="none" stroke="#b60707" stroke-width=".5" d="M 330.092896,319.665741 C 301.076111,395.937714 143.142975,466.820557 66.870987,437.803772"/><path fill="none" stroke="#b60707" stroke-width=".5" d="M 330.092896,319.665741 C 177.982208,311.112976 -37.354637,70.117813 -28.801874,-81.992874"/><path fill="none" stroke="#b6078a" stroke-width=".5" d="M -63.231281,452.505188 C -40.151115,423.544464 37.910248,414.723602 66.870987,437.803772"/><path fill="none" stroke="#b6078a" stroke-width="1.5" d="M 10.524757,299.629272 C -27.058878,234.528641 14.216629,80.502220 79.317276,42.918587"/><path fill="none" stroke="#b6078a" stroke-width="1" d="M 10.524757,299.629272 C 49.428902,315.994904 83.236641,398.899628 66.870987,437.803772"/><path fill="none" stroke="#b6078a" stroke-width=".5" d="M 10.524757,299.629272 C -73.665001,231.170166 -97.260979,2.196885 -28.801874,-81.992874"/><path fill="none" stroke="#b6078a" stroke-width="1" d="M 10.524757,299.629272 C 26.348732,344.955688 -17.904888,436.681213 -63.231281,452.505188"/><path fill="none" stroke="#b60707" stroke-width="1" d="M 111.189552,202.063034 C 72.986206,176.608597 53.862846,81.121933 79.317276,42.918587"/><path fill="none" stroke="#b60707" stroke-width=".5" d="M 111.189552,202.063034 C 26.380089,173.250153 -57.614769,2.816591 -28.801874,-81.992874"/><path fill="none" stroke="#b60707" stroke-width="1.5" d="M 408.768524,218.987061 C 307.664612,249.663605 109.993820,144.022522 79.317276,42.918587"/><path fill="none" stroke="#b60707" stroke-width="1" d="M 408.768524,218.987061 C 413.169128,254.857925 365.963776,315.265137 330.092896,319.665741"/><path fill="none" stroke="#b60707" stroke-width="1.5" d="M 413.957275,286.501831 C 298.312622,304.713196 97.528618,158.563232 79.317276,42.918587"/><path fill="none" stroke="#b60707" stroke-width="1" d="M 413.957275,286.501831 C 403.817169,309.907501 353.498566,329.805847 330.092896,319.665741"/><path fill="none" stroke="#b60707" stroke-width="1.5" d="M 413.957275,286.501831 C 399.416565,274.036621 396.303314,233.527771 408.768524,218.987061"/><path fill="none" stroke="#b60707" stroke-width="1" d="M 458.471649,354.037201 C 320.417053,367.644348 92.924423,180.973175 79.317276,42.918587"/><path fill="none" stroke="#b60707" stroke-width=".5" d="M 458.471649,354.037201 C 425.921600,372.838654 348.894348,352.215790 330.092896,319.665741"/><path fill="none" stroke="#b60707" stroke-width="1" d="M 458.471649,354.037201 C 421.520996,336.967773 391.699097,255.937714 408.768524,218.987061"/><path fill="none" stroke="#b60707" stroke-width="1" d="M 458.471649,354.037201 C 436.061707,349.432983 409.353058,308.911774 413.957275,286.501831"/><path fill="none" stroke="#b60707" stroke-width="1" d="M 519.267273,305.613220 C 378.738342,341.064270 114.768349,183.447525 79.317276,42.918587"/><path fill="none" stroke="#b60707" stroke-width=".5" d="M 519.267273,305.613220 C 484.242920,346.258606 370.738281,354.690094 330.092896,319.665741"/><path fill="none" stroke="#b60707" stroke-width="1" d="M 519.267273,305.613220 C 479.842285,310.387756 413.543060,258.412048 408.768524,218.987061"/><path fill="none" stroke="#b60707" stroke-width="1" d="M 519.267273,305.613220 C 494.382996,322.852966 431.197021,311.386108 413.957275,286.501831"/><path fill="none" stroke="#b60707" stroke-width="1" d="M 519.267273,305.613220 C 516.792969,327.457123 480.315552,356.511536 458.471649,354.037201"/><path fill="none" stroke="#b60707" stroke-width="1" d="M 497.434448,233.788193 C 375.637085,279.237701 124.766785,164.715942 79.317276,42.918587"/><path fill="none" stroke="#b60707" stroke-width=".5" d="M 497.434448,233.788193 C 481.141632,284.432007 380.736725,335.958557 330.092896,319.665741"/><path fill="none" stroke="#b60707" stroke-width="1" d="M 497.434448,233.788193 C 476.741028,248.561157 423.541473,239.680466 408.768524,218.987061"/><path fill="none" stroke="#b60707" stroke-width="1" d="M 497.434448,233.788193 C 491.281738,261.026367 441.195435,292.654541 413.957275,286.501831"/><path fill="none" stroke="#b60707" stroke-width="1" d="M 497.434448,233.788193 C 513.691650,265.630554 490.314026,337.779968 458.471649,354.037201"/><path fill="none" stroke="#b60707" stroke-width="1" d="M 497.434448,233.788193 C 516.166016,243.786636 529.265686,286.881653 519.267273,305.613220"/><path fill="none" stroke="#b68a07" stroke-width=".5" d="M -407.576660,116.798080 C -380.080719,-44.936691 -96.234657,-246.294937 65.500114,-218.798996"/><path fill="none" stroke="#5f07b6" stroke-width="1" d="M -87.836143,-361.782959 C -0.169350,-355.229706 121.500946,-213.899628 114.947693,-126.232841"/><path fill="none" stroke="#5f07b6" stroke-width="1.5" d="M -87.836143,-361.782959 C -28.572098,-363.853424 63.429657,-278.063049 65.500114,-218.798996"/><path fill="none" stroke="#5f07b6" stroke-width=".5" d="M 4.809565,-329.301819 C 67.450989,-310.715637 133.533859,-188.874268 114.947693,-126.232841"/><path fill="none" stroke="#5f07b6" stroke-width="1" d="M 4.809565,-329.301819 C 39.048241,-319.339386 75.462570,-253.037674 65.500114,-218.798996"/><path fill="none" stroke="#5f07b6" stroke-width="1" d="M 4.809565,-329.301819 C -20.215805,-317.268890 -75.803238,-336.757599 -87.836143,-361.782959"/><path fill="none" stroke="#b68a07" stroke-width="1.5" d="M -24.738543,173.737000 C -30.091063,126.762154 32.342430,48.271103 79.317276,42.918587"/><path fill="none" stroke="#b68a07" stroke-width=".5" d="M -24.738543,173.737000 C -67.985893,154.957291 -104.687340,61.916714 -85.907631,18.669367"/><path fill="none" stroke="#b68a07" stroke-width=".5" d="M -24.738543,173.737000 C -76.697182,123.403694 -79.135178,-30.034235 -28.801874,-81.992874"/><path fill="none" stroke="#07b633" stroke-width=".5" d="M 312.542053,85.780510 C 257.324707,123.853088 117.389847,98.135925 79.317276,42.918587"/><path fill="none" stroke="#07b633" stroke-width="1.5" d="M 312.542053,85.780510 C 293.696350,95.419792 250.968796,81.610123 241.329514,62.764393"/><path fill="none" stroke="#07b6b6" stroke-width=".5" d="M -513.975830,-215.067291 C -343.720032,-282.128723 12.255833,-127.337204 79.317276,42.918587"/><path fill="none" stroke="#07b6b6" stroke-width=".5" d="M -513.975830,-215.067291 C -398.826965,-331.708832 -51.141422,-333.947845 65.500114,-218.798996"/><path fill="none" stroke="#07b6b6" stroke-width=".5" d="M -513.975830,-215.067291 C -390.326172,-285.487183 -99.221779,-205.642548 -28.801874,-81.992874"/><path fill="none" stroke="#07b6b6" stroke-width="1" d="M -513.975830,-215.067291 C -572.982422,-131.924316 -786.206787,-95.719780 -869.349731,-154.726364"/><path fill="none" stroke="#b68a07" stroke-width="1" d="M -239.127090,14.188005 C -169.692108,-43.754753 21.374516,-26.516407 79.317276,42.918587"/><path fill="none" stroke="#b68a07" stroke-width="1.5" d="M -239.127090,14.188005 C -207.586929,-15.559614 -115.655251,-12.870798 -85.907631,18.669367"/><path fill="none" stroke="#b68a07" stroke-width=".5" d="M -189.557648,174.874115 C -188.877975,53.751656 -6.174770,-126.912514 114.947693,-126.232841"/><path fill="none" stroke="#b68a07" stroke-width=".5" d="M -189.557648,174.874115 C -231.608765,152.650787 -261.350403,56.239113 -239.127090,14.188005"/><path fill="none" stroke="#b68a07" stroke-width="1" d="M -274.456451,80.180954 C -211.154175,1.973732 1.110057,-20.383686 79.317276,42.918587"/><path fill="none" stroke="#b68a07" stroke-width="1" d="M -274.456451,80.180954 C -249.049011,30.168873 -135.919724,-6.738083 -85.907631,18.669367"/><path fill="none" stroke="#b68a07" stroke-width="4.5" d="M -274.456451,80.180954 C -280.589142,59.916489 -259.391541,20.320724 -239.127090,14.188005"/><path fill="none" stroke="#b68a07" stroke-width=".5" d="M -520.020386,247.343750 C -523.640808,198.745880 -456.174530,120.418465 -407.576660,116.798080"/><path fill="none" stroke="#b68a07" stroke-width=".5" d="M -520.020386,247.343750 C -504.340149,164.798401 -357.001801,64.500717 -274.456451,80.180954"/><path fill="none" stroke="#b68a07" stroke-width=".5" d="M -331.118530,168.561996 C -312.054871,89.541283 -164.928345,-0.394295 -85.907631,18.669367"/><path fill="none" stroke="#b68a07" stroke-width=".5" d="M -331.118530,168.561996 C -343.595032,119.288910 -288.400177,26.664516 -239.127090,14.188005"/><path fill="none" stroke="#b68a07" stroke-width="1" d="M -331.118530,168.561996 C -337.462311,139.553375 -303.465088,86.524750 -274.456451,80.180954"/><path fill="none" stroke="#b68a07" stroke-width="9.5" d="M -229.469955,-114.826447 C -136.163498,-145.034882 49.108833,-50.387863 79.317276,42.918587"/><path fill="none" stroke="#b68a07" stroke-width=".5" d="M -229.469955,-114.826447 C -32.813538,-9.619034 104.359955,443.176636 -0.847456,639.833069"/><path fill="none" stroke="#b68a07" stroke-width="1" d="M -229.469955,-114.826447 C -191.270462,-194.614960 -14.288406,-256.998505 65.500114,-218.798996"/><path fill="none" stroke="#b68a07" stroke-width="10.5" d="M -229.469955,-114.826447 C -174.058334,-116.839745 -87.920929,-36.742260 -85.907631,18.669367"/><path fill="none" stroke="#b68a07" stroke-width=".5" d="M -229.469955,-114.826447 C -218.766403,-32.880199 -325.630432,106.094513 -407.576660,116.798080"/><path fill="none" stroke="#b68a07" stroke-width="2.5" d="M -229.469955,-114.826447 C -250.534485,-192.544510 -165.554214,-340.718414 -87.836143,-361.782959"/><path fill="none" stroke="#b68a07" stroke-width="2" d="M -229.469955,-114.826447 C -306.419281,-77.973450 -477.122803,-138.117950 -513.975830,-215.067291"/><path fill="none" stroke="#b68a07" stroke-width="6" d="M -229.469955,-114.826447 C -205.598495,-87.092133 -211.392776,-9.683458 -239.127090,14.188005"/><path fill="none" stroke="#b68a07" stroke-width="3" d="M -229.469955,-114.826447 C -199.465775,-66.827667 -226.457657,50.176769 -274.456451,80.180954"/><path fill="none" stroke="#b68a07" stroke-width=".5" d="M -229.469955,-114.826447 C -193.121979,-37.819046 -254.111130,132.214020 -331.118530,168.561996"/><path fill="none" stroke="#b68a07" stroke-width=".5" d="M -457.482025,65.455307 C -424.064484,11.530861 -293.051514,-19.229519 -239.127090,14.188005"/><path fill="none" stroke="#b68a07" stroke-width=".5" d="M -457.482025,65.455307 C -447.935974,-16.203457 -311.128723,-124.372513 -229.469955,-114.826447"/><path fill="none" stroke="#07b6b6" stroke-width=".5" d="M -437.938446,-599.550171 C -320.364532,-622.017151 -110.303162,-479.356873 -87.836143,-361.782959"/><path fill="none" stroke="#07b6b6" stroke-width=".5" d="M -437.938446,-599.550171 C -376.249359,-507.446075 -421.871765,-276.756378 -513.975830,-215.067291"/><path fill="none" stroke="#07b6b6" stroke-width=".5" d="M -437.938446,-599.550171 C -299.299988,-544.299133 -174.218918,-253.464890 -229.469955,-114.826447"/><path fill="none" stroke="#07b6b6" stroke-width="2" d="M -368.101929,-303.678345 C -209.298721,-323.842804 59.152817,-115.884636 79.317276,42.918587"/><path fill="none" stroke="#07b6b6" stroke-width="3" d="M -368.101929,-303.678345 C -255.904816,-327.201263 -52.324787,-194.189972 -28.801874,-81.992874"/><path fill="none" stroke="#07b6b6" stroke-width="3.5" d="M -368.101929,-303.678345 C -379.554504,-256.781372 -467.078857,-203.614731 -513.975830,-215.067291"/><path fill="none" stroke="#07b6b6" stroke-width="3.5" d="M -368.101929,-303.678345 C -302.605164,-293.634338 -219.425964,-180.323227 -229.469955,-114.826447"/><path fill="none" stroke="#07b6b6" stroke-width=".5" d="M -368.101929,-303.678345 C -441.243622,-348.885406 -483.145508,-526.408508 -437.938446,-599.550171"/><path fill="none" stroke="#07b6b6" stroke-width="3" d="M -456.676819,-310.580475 C -449.033997,-280.018036 -483.413391,-222.710114 -513.975830,-215.067291"/><path fill="none" stroke="#07b6b6" stroke-width="2.5" d="M -456.676819,-310.580475 C -372.084625,-316.871033 -235.760513,-199.418625 -229.469955,-114.826447"/><path fill="none" stroke="#07b6b6" stroke-width="1" d="M -456.676819,-310.580475 C -510.723083,-372.122101 -499.480072,-545.503906 -437.938446,-599.550171"/><path fill="none" stroke="#07b6b6" stroke-width="7.5" d="M -456.676819,-310.580475 C -437.581421,-326.915009 -384.436462,-322.773743 -368.101929,-303.678345"/><path fill="none" stroke="#07b6b6" stroke-width=".5" d="M -558.620056,-534.685425 C -485.767578,-479.690613 -458.981018,-287.919739 -513.975830,-215.067291"/><path fill="none" stroke="#07b6b6" stroke-width="2" d="M -558.620056,-534.685425 C -474.315002,-526.587646 -360.004150,-387.983398 -368.101929,-303.678345"/><path fill="none" stroke="#07b6b6" stroke-width="1" d="M -558.620056,-534.685425 C -493.410400,-510.253082 -432.244476,-375.790100 -456.676819,-310.580475"/><path fill="none" stroke="#07b6b6" stroke-width="1" d="M -472.868011,-470.360168 C -430.031006,-411.080048 -454.695709,-257.904297 -513.975830,-215.067291"/><path fill="none" stroke="#07b6b6" stroke-width=".5" d="M -472.868011,-470.360168 C -353.081665,-447.933044 -207.042816,-234.612808 -229.469955,-114.826447"/><path fill="none" stroke="#07b6b6" stroke-width=".5" d="M -472.868011,-470.360168 C -491.720123,-503.184082 -470.762360,-580.698059 -437.938446,-599.550171"/><path fill="none" stroke="#07b6b6" stroke-width="3" d="M -472.868011,-470.360168 C -418.578430,-457.977020 -355.718781,-357.967926 -368.101929,-303.678345"/><path fill="none" stroke="#07b6b6" stroke-width="2.5" d="M -472.868011,-470.360168 C -437.673828,-441.642487 -427.959137,-345.774658 -456.676819,-310.580475"/><path fill="none" stroke="#07b6b6" stroke-width="1" d="M -472.868011,-470.360168 C -502.883484,-466.074799 -554.334717,-504.669952 -558.620056,-534.685425"/><path fill="none" stroke="#07b6b6" stroke-width=".5" d="M -415.810944,-387.885071 C -344.995575,-448.259583 -148.210663,-432.598328 -87.836143,-361.782959"/><path fill="none" stroke="#07b6b6" stroke-width="3.5" d="M -415.810944,-387.885071 C -400.880341,-333.688538 -459.779297,-229.997864 -513.975830,-215.067291"/><path fill="none" stroke="#07b6b6" stroke-width="4.5" d="M -415.810944,-387.885071 C -323.931030,-370.541534 -212.126434,-206.706375 -229.469955,-114.826447"/><path fill="none" stroke="#07b6b6" stroke-width="1" d="M -415.810944,-387.885071 C -462.569458,-425.792572 -475.845947,-552.791687 -437.938446,-599.550171"/><path fill="none" stroke="#07b6b6" stroke-width="8.5" d="M -415.810944,-387.885071 C -389.427795,-380.585541 -360.802399,-330.061493 -368.101929,-303.678345"/><path fill="none" stroke="#07b6b6" stroke-width="6.5" d="M -415.810944,-387.885071 C -408.523224,-364.250977 -433.042725,-317.868195 -456.676819,-310.580475"/><path fill="none" stroke="#07b6b6" stroke-width="1.5" d="M -415.810944,-387.885071 C -473.732849,-388.683319 -559.418274,-476.763519 -558.620056,-534.685425"/><path fill="none" stroke="#07b6b6" stroke-width="3" d="M -415.810944,-387.885071 C -443.717377,-392.968689 -477.951630,-442.453735 -472.868011,-470.360168"/><path fill="none" stroke="#07b6b6" stroke-width="2.5" d="M -608.147217,-345.295197 C -563.267334,-338.083893 -506.764526,-259.947144 -513.975830,-215.067291"/><path fill="none" stroke="#07b6b6" stroke-width=".5" d="M -608.147217,-345.295197 C -486.317993,-374.936890 -259.111664,-236.655640 -229.469955,-114.826447"/><path fill="none" stroke="#07b6b6" stroke-width="1" d="M -608.147217,-345.295197 C -624.956482,-430.187927 -522.831177,-582.740906 -437.938446,-599.550171"/><path fill="none" stroke="#07b6b6" stroke-width="2" d="M -608.147217,-345.295197 C -551.814819,-384.980896 -407.787628,-360.010773 -368.101929,-303.678345"/><path fill="none" stroke="#07b6b6" stroke-width="2.5" d="M -608.147217,-345.295197 C -570.910217,-368.646332 -480.027954,-347.817474 -456.676819,-310.580475"/><path fill="none" stroke="#07b6b6" stroke-width="1" d="M -608.147217,-345.295197 C -636.119812,-393.078674 -606.403564,-506.712799 -558.620056,-534.685425"/><path fill="none" stroke="#07b6b6" stroke-width="1.5" d="M -608.147217,-345.295197 C -606.104370,-397.364044 -524.936829,-472.403015 -472.868011,-470.360168"/><path fill="none" stroke="#07b6b6" stroke-width="3" d="M -608.147217,-345.295197 C -578.197937,-392.280426 -462.796173,-417.834351 -415.810944,-387.885071"/><path fill="none" stroke="#07b6b6" stroke-width=".5" d="M -512.679199,-374.157745 C -310.864624,-409.141785 44.333252,-158.895966 79.317276,42.918587"/><path fill="none" stroke="#07b6b6" stroke-width="2.5" d="M -512.679199,-374.157745 C -481.120453,-342.080322 -481.898407,-246.626053 -513.975830,-215.067291"/><path fill="none" stroke="#07b6b6" stroke-width="2.5" d="M -512.679199,-374.157745 C -404.171082,-378.933319 -234.245560,-223.334549 -229.469955,-114.826447"/><path fill="none" stroke="#07b6b6" stroke-width=".5" d="M -512.679199,-374.157745 C -542.809509,-434.184387 -497.965088,-569.419861 -437.938446,-599.550171"/><path fill="none" stroke="#07b6b6" stroke-width="5" d="M -512.679199,-374.157745 C -469.667847,-388.977325 -382.921509,-346.689697 -368.101929,-303.678345"/><path fill="none" stroke="#07b6b6" stroke-width="4.5" d="M -512.679199,-374.157745 C -488.763275,-372.642761 -455.161835,-334.496399 -456.676819,-310.580475"/><path fill="none" stroke="#07b6b6" stroke-width="1" d="M -512.679199,-374.157745 C -553.972900,-397.075104 -581.537415,-493.391724 -558.620056,-534.685425"/><path fill="none" stroke="#07b6b6" stroke-width="3" d="M -512.679199,-374.157745 C -523.957458,-401.360474 -500.070740,-459.081940 -472.868011,-470.360168"/><path fill="none" stroke="#07b6b6" stroke-width="6" d="M -512.679199,-374.157745 C -496.050995,-396.276855 -437.930054,-404.513275 -415.810944,-387.885071"/><path fill="none" stroke="#07b6b6" stroke-width="2" d="M -512.679199,-374.157745 C -526.000305,-349.291626 -583.281067,-331.974121 -608.147217,-345.295197"/><path fill="none" stroke="#07b6b6" stroke-width="1.5" d="M -573.410950,-436.380981 C -517.261169,-404.005280 -481.600128,-271.217041 -513.975830,-215.067291"/><path fill="none" stroke="#07b6b6" stroke-width="1" d="M -573.410950,-436.380981 C -440.311829,-440.858276 -233.947235,-247.925552 -229.469955,-114.826447"/><path fill="none" stroke="#07b6b6" stroke-width=".5" d="M -573.410950,-436.380981 C -578.950317,-496.109344 -497.666809,-594.010803 -437.938446,-599.550171"/><path fill="none" stroke="#07b6b6" stroke-width="2.5" d="M -573.410950,-436.380981 C -505.808594,-450.902252 -382.623199,-371.280670 -368.101929,-303.678345"/><path fill="none" stroke="#07b6b6" stroke-width="2.5" d="M -573.410950,-436.380981 C -524.904053,-434.567719 -454.863556,-359.087402 -456.676819,-310.580475"/><path fill="none" stroke="#07b6b6" stroke-width="1" d="M -573.410950,-436.380981 C -590.113647,-459.000061 -581.239136,-517.982727 -558.620056,-534.685425"/><path fill="none" stroke="#07b6b6" stroke-width="2.5" d="M -573.410950,-436.380981 C -560.098206,-463.285400 -499.772430,-483.672913 -472.868011,-470.360168"/><path fill="none" stroke="#07b6b6" stroke-width="2.5" d="M -573.410950,-436.380981 C -532.191772,-458.201782 -437.631744,-429.104248 -415.810944,-387.885071"/><path fill="none" stroke="#07b6b6" stroke-width="2.5" d="M -573.410950,-436.380981 C -562.141052,-411.216553 -582.982788,-356.565094 -608.147217,-345.295197"/><path fill="none" stroke="#07b6b6" stroke-width="3.5" d="M -573.410950,-436.380981 C -548.819946,-436.082703 -512.380920,-398.748749 -512.679199,-374.157745"/><path fill="none" stroke="#07b6b6" stroke-width=".5" d="M -680.872864,-483.555725 C -593.795776,-463.237427 -493.657532,-302.144379 -513.975830,-215.067291"/><path fill="none" stroke="#07b6b6" stroke-width="1.5" d="M -680.872864,-483.555725 C -582.343201,-510.134460 -394.680664,-402.208008 -368.101929,-303.678345"/><path fill="none" stroke="#07b6b6" stroke-width=".5" d="M -680.872864,-483.555725 C -601.438599,-493.799896 -466.920959,-390.014740 -456.676819,-310.580475"/><path fill="none" stroke="#07b6b6" stroke-width=".5" d="M -680.872864,-483.555725 C -666.648254,-518.232239 -593.296570,-548.910034 -558.620056,-534.685425"/><path fill="none" stroke="#07b6b6" stroke-width=".5" d="M -680.872864,-483.555725 C -636.632813,-522.517578 -511.829895,-514.600220 -472.868011,-470.360168"/><path fill="none" stroke="#07b6b6" stroke-width="1" d="M -680.872864,-483.555725 C -608.726318,-517.433960 -449.689209,-460.031586 -415.810944,-387.885071"/><path fill="none" stroke="#07b6b6" stroke-width=".5" d="M -680.872864,-483.555725 C -638.675659,-470.448761 -595.040222,-387.492432 -608.147217,-345.295197"/><path fill="none" stroke="#07b6b6" stroke-width="1.5" d="M -680.872864,-483.555725 C -625.354553,-495.314850 -524.438354,-429.676086 -512.679199,-374.157745"/><path fill="none" stroke="#07b6b6" stroke-width="1" d="M -680.872864,-483.555725 C -649.945557,-495.613159 -585.468384,-467.308289 -573.410950,-436.380981"/><path fill="none" stroke="#5f07b6" stroke-width=".5" d="M 168.606064,-397.189941 C 238.770020,-291.310486 185.196747,-27.245361 79.317276,42.918587"/><path fill="none" stroke="#5f07b6" stroke-width=".5" d="M 168.606064,-397.189941 C 212.065811,-332.266846 179.870789,-169.692581 114.947693,-126.232841"/><path fill="none" stroke="#5f07b6" stroke-width="2.5" d="M 168.606064,-397.189941 C 183.663071,-340.890564 121.799500,-233.856003 65.500114,-218.798996"/><path fill="none" stroke="#5f07b6" stroke-width=".5" d="M 168.606064,-397.189941 C 192.163910,-294.668915 73.719139,-105.550697 -28.801874,-81.992874"/><path fill="none" stroke="#5f07b6" stroke-width=".5" d="M 168.606064,-397.189941 C 124.399025,-338.820099 -29.466307,-317.575897 -87.836143,-361.782959"/><path fill="none" stroke="#5f07b6" stroke-width=".5" d="M 168.606064,-397.189941 C 68.514206,-224.249023 -341.034912,-114.975433 -513.975830,-215.067291"/><path fill="none" stroke="#5f07b6" stroke-width=".5" d="M 111.522682,-333.141876 C 180.293701,-251.488693 160.970444,-25.852421 79.317276,42.918587"/><path fill="none" stroke="#5f07b6" stroke-width=".5" d="M 111.522682,-333.141876 C 153.589493,-292.445068 155.644501,-168.299652 114.947693,-126.232841"/><path fill="none" stroke="#5f07b6" stroke-width="3" d="M 111.522682,-333.141876 C 125.186745,-301.068787 97.573204,-232.463058 65.500114,-218.798996"/><path fill="none" stroke="#5f07b6" stroke-width="1" d="M 111.522682,-333.141876 C 133.687576,-254.847168 49.492836,-104.157761 -28.801874,-81.992874"/><path fill="none" stroke="#5f07b6" stroke-width=".5" d="M 111.522682,-333.141876 C 65.922699,-298.998322 -53.692596,-316.182983 -87.836143,-361.782959"/><path fill="none" stroke="#5f07b6" stroke-width=".5" d="M 111.522682,-333.141876 C 10.037884,-184.427231 -365.261169,-113.582489 -513.975830,-215.067291"/><path fill="none" stroke="#5f07b6" stroke-width="3" d="M 111.522682,-333.141876 C 110.129745,-357.368164 144.379776,-395.797028 168.606064,-397.189941"/><path fill="none" stroke="#5f07b6" stroke-width=".5" d="M 60.387230,-410.381104 C 154.833176,-323.507172 166.191193,-51.527359 79.317276,42.918587"/><path fill="none" stroke="#5f07b6" stroke-width=".5" d="M 60.387230,-410.381104 C 128.128967,-364.463531 160.865250,-193.974594 114.947693,-126.232841"/><path fill="none" stroke="#5f07b6" stroke-width="2" d="M 60.387230,-410.381104 C 99.726227,-373.087280 102.793961,-258.138000 65.500114,-218.798996"/><path fill="none" stroke="#5f07b6" stroke-width=".5" d="M 60.387230,-410.381104 C 108.227058,-326.865631 54.713600,-129.832703 -28.801874,-81.992874"/><path fill="none" stroke="#5f07b6" stroke-width=".5" d="M 60.387230,-410.381104 C 40.462185,-371.016785 -48.471840,-341.857910 -87.836143,-361.782959"/><path fill="none" stroke="#5f07b6" stroke-width=".5" d="M 60.387230,-410.381104 C -3.970049,-303.342712 -261.063568,-239.321060 -368.101929,-303.678345"/><path fill="none" stroke="#5f07b6" stroke-width="2" d="M 60.387230,-410.381104 C 84.669228,-429.386627 149.600525,-421.471954 168.606064,-397.189941"/><path fill="none" stroke="#5f07b6" stroke-width="2" d="M 60.387230,-410.381104 C 86.062164,-405.160339 116.743439,-358.816803 111.522682,-333.141876"/><path fill="none" stroke="#5f07b6" stroke-width=".5" d="M 18.282034,-509.368713 C 140.946533,-411.118317 177.567688,-79.745918 79.317276,42.918587"/><path fill="none" stroke="#5f07b6" stroke-width=".5" d="M 18.282034,-509.368713 C 85.839592,-460.698364 114.170441,-286.356537 65.500114,-218.798996"/><path fill="none" stroke="#5f07b6" stroke-width=".5" d="M 18.282034,-509.368713 C 94.340424,-414.476776 66.090080,-158.051270 -28.801874,-81.992874"/><path fill="none" stroke="#5f07b6" stroke-width=".5" d="M 18.282034,-509.368713 C 26.575550,-458.627930 -37.095352,-370.076477 -87.836143,-361.782959"/><path fill="none" stroke="#5f07b6" stroke-width=".5" d="M 18.282034,-509.368713 C -29.309258,-344.056854 -348.663971,-167.476013 -513.975830,-215.067291"/><path fill="none" stroke="#5f07b6" stroke-width="1" d="M 18.282034,-509.368713 C 70.782593,-516.997742 160.977020,-449.690521 168.606064,-397.189941"/><path fill="none" stroke="#5f07b6" stroke-width="1" d="M 18.282034,-509.368713 C 72.175529,-492.771484 128.119934,-387.035370 111.522682,-333.141876"/><path fill="none" stroke="#5f07b6" stroke-width="1" d="M 18.282034,-509.368713 C 46.500595,-497.992249 71.763710,-438.599670 60.387230,-410.381104"/><path fill="none" stroke="#b68a07" stroke-width=".5" d="M -110.059311,155.582397 C -94.716751,95.174316 18.909197,27.576031 79.317276,42.918587"/><path fill="none" stroke="#b68a07" stroke-width="1" d="M -110.059311,155.582397 C -132.611572,123.369461 -118.120575,41.221634 -85.907631,18.669367"/><path fill="none" stroke="#b68a07" stroke-width=".5" d="M -110.059311,155.582397 C -141.322876,91.815849 -92.568420,-50.729305 -28.801874,-81.992874"/><path fill="none" stroke="#07b6b6" stroke-width="1" d="M -760.866211,-144.980515 C -725.505493,-208.375946 -577.371216,-250.428009 -513.975830,-215.067291"/><path fill="none" stroke="#07b6b6" stroke-width="1" d="M -743.163635,-103.543877 C -719.630737,-171.686127 -582.118103,-238.600159 -513.975830,-215.067291"/><path fill="none" stroke="#07b6b6" stroke-width="1.5" d="M -743.163635,-103.543877 C -754.991516,-108.290695 -765.613037,-133.152679 -760.866211,-144.980515"/><path fill="none" stroke="#5f07b6" stroke-width="1.5" d="M 126.308670,-492.025330 C 168.792221,-425.218353 132.307098,-261.282562 65.500114,-218.798996"/><path fill="none" stroke="#5f07b6" stroke-width=".5" d="M 126.308670,-492.025330 C 109.528183,-423.147919 -18.958708,-345.002472 -87.836143,-361.782959"/><path fill="none" stroke="#5f07b6" stroke-width=".5" d="M 126.308670,-492.025330 C 53.643364,-308.576813 -330.527313,-142.401978 -513.975830,-215.067291"/><path fill="none" stroke="#5f07b6" stroke-width="1.5" d="M 126.308670,-492.025330 C 153.735214,-481.517731 179.113663,-424.616486 168.606064,-397.189941"/><path fill="none" stroke="#5f07b6" stroke-width="1.5" d="M 126.308670,-492.025330 C 155.128159,-457.291443 146.256577,-361.961395 111.522682,-333.141876"/><path fill="none" stroke="#5f07b6" stroke-width=".5" d="M 126.308670,-492.025330 C 129.453232,-462.512177 89.900360,-413.525665 60.387230,-410.381104"/><path fill="none" stroke="#5f07b6" stroke-width=".5" d="M 126.308670,-492.025330 C 101.234665,-473.888702 36.418682,-484.294708 18.282034,-509.368713"/><path fill="none" stroke="#07b6b6" stroke-width=".5" d="M -787.172913,-406.753052 C -694.196350,-423.055298 -530.278076,-308.043854 -513.975830,-215.067291"/><path fill="none" stroke="#07b6b6" stroke-width=".5" d="M -787.172913,-406.753052 C -682.743774,-469.952332 -431.301208,-408.107483 -368.101929,-303.678345"/><path fill="none" stroke="#07b6b6" stroke-width=".5" d="M -787.172913,-406.753052 C -709.126892,-477.251862 -486.309753,-465.931061 -415.810944,-387.885071"/><path fill="none" stroke="#07b6b6" stroke-width=".5" d="M -787.172913,-406.753052 C -739.076233,-430.266632 -631.660767,-393.391907 -608.147217,-345.295197"/><path fill="none" stroke="#07b6b6" stroke-width=".5" d="M -787.172913,-406.753052 C -725.755127,-455.132721 -561.058899,-435.575562 -512.679199,-374.157745"/><path fill="none" stroke="#07b6b6" stroke-width=".5" d="M -787.172913,-406.753052 C -750.346130,-455.431030 -622.088928,-473.207764 -573.410950,-436.380981"/><path fill="none" stroke="#07b6b6" stroke-width=".5" d="M -787.172913,-406.753052 C -781.273438,-443.373596 -717.493408,-489.455200 -680.872864,-483.555725"/></g><g id="nodes"><circle cx="553.03" cy="-35.989" r="22.857" fill="#5fb607" stroke="#000" stroke-width="1"/><circle cx="455.295" cy="-41.913" r="12.857" fill="#5fb607" stroke="#000" stroke-width="1"/><circle cx="476.119" cy="-4.553" r="12.857" fill="#5fb607" stroke="#000" stroke-width="1"/><circle cx="79.317" cy="42.919" r="60" fill="#b60707" stroke="#000" stroke-width="1"/><circle cx="172.62" cy="399.541" r="11.429" fill="#b6078a" stroke="#000" stroke-width="1"/><circle cx="-.847" cy="639.833" r="21.429" fill="#b6078a" stroke="#000" stroke-width="1"/><circle cx="31.143" cy="784.914" r="18.571" fill="#b6078a" stroke="#000" stroke-width="1"/><circle cx="99.264" cy="772.927" r="18.571" fill="#b6078a" stroke="#000" stroke-width="1"/><circle cx="-9.457" cy="729.372" r="18.571" fill="#b6078a" stroke="#000" stroke-width="1"/><circle cx="57.926" cy="709.507" r="18.571" fill="#b6078a" stroke="#000" stroke-width="1"/><circle cx="92.408" cy="650.473" r="18.571" fill="#b6078a" stroke="#000" stroke-width="1"/><circle cx="136.357" cy="708.208" r="18.571" fill="#b6078a" stroke="#000" stroke-width="1"/><circle cx="66.871" cy="437.804" r="30" fill="#b6078a" stroke="#000" stroke-width="1"/><circle cx="114.948" cy="-126.233" r="24.286" fill="#5f07b6" stroke="#000" stroke-width="1"/><circle cx="65.5" cy="-218.799" r="31.429" fill="#5f07b6" stroke="#000" stroke-width="1"/><circle cx="-85.908" cy="18.669" r="24.286" fill="#b68a07" stroke="#000" stroke-width="1"/><circle cx="-28.802" cy="-81.993" r="32.857" fill="#5f07b6" stroke="#000" stroke-width="1"/><circle cx="241.33" cy="62.764" r="14.286" fill="#07b633" stroke="#000" stroke-width="1"/><circle cx="330.093" cy="319.666" r="20" fill="#b60707" stroke="#000" stroke-width="1"/><circle cx="-63.231" cy="452.505" r="11.429" fill="#b6078a" stroke="#000" stroke-width="1"/><circle cx="10.525" cy="299.629" r="14.286" fill="#b6078a" stroke="#000" stroke-width="1"/><circle cx="111.19" cy="202.063" r="11.429" fill="#b60707" stroke="#000" stroke-width="1"/><circle cx="408.769" cy="218.987" r="17.143" fill="#b60707" stroke="#000" stroke-width="1"/><circle cx="413.957" cy="286.502" r="17.143" fill="#b60707" stroke="#000" stroke-width="1"/><circle cx="458.472" cy="354.037" r="17.143" fill="#b60707" stroke="#000" stroke-width="1"/><circle cx="519.267" cy="305.613" r="17.143" fill="#b60707" stroke="#000" stroke-width="1"/><circle cx="497.434" cy="233.788" r="17.143" fill="#b60707" stroke="#000" stroke-width="1"/><circle cx="-407.577" cy="116.798" r="12.857" fill="#b68a07" stroke="#000" stroke-width="1"/><circle cx="-87.836" cy="-361.783" r="24.286" fill="#5f07b6" stroke="#000" stroke-width="1"/><circle cx="4.81" cy="-329.302" r="12.857" fill="#5f07b6" stroke="#000" stroke-width="1"/><circle cx="-24.739" cy="173.737" r="12.857" fill="#b68a07" stroke="#000" stroke-width="1"/><circle cx="312.542" cy="85.781" r="11.429" fill="#07b633" stroke="#000" stroke-width="1"/><circle cx="-869.35" cy="-154.726" r="11.429" fill="#0733b6" stroke="#000" stroke-width="1"/><circle cx="-513.976" cy="-215.067" r="40" fill="#07b6b6" stroke="#000" stroke-width="1"/><circle cx="-239.127" cy="14.188" r="18.571" fill="#b68a07" stroke="#000" stroke-width="1"/><circle cx="-189.558" cy="174.874" r="11.429" fill="#b68a07" stroke="#000" stroke-width="1"/><circle cx="-274.456" cy="80.181" r="18.571" fill="#b68a07" stroke="#000" stroke-width="1"/><circle cx="-520.02" cy="247.344" r="11.429" fill="#b68a07" stroke="#000" stroke-width="1"/><circle cx="-331.119" cy="168.562" r="14.286" fill="#b68a07" stroke="#000" stroke-width="1"/><circle cx="-229.47" cy="-114.826" r="35.714" fill="#b68a07" stroke="#000" stroke-width="1"/><circle cx="-457.482" cy="65.455" r="11.429" fill="#b68a07" stroke="#000" stroke-width="1"/><circle cx="-437.938" cy="-599.55" r="24.286" fill="#07b6b6" stroke="#000" stroke-width="1"/><circle cx="-368.102" cy="-303.678" r="30" fill="#07b6b6" stroke="#000" stroke-width="1"/><circle cx="-456.677" cy="-310.58" r="24.286" fill="#07b6b6" stroke="#000" stroke-width="1"/><circle cx="-558.62" cy="-534.685" r="21.429" fill="#07b6b6" stroke="#000" stroke-width="1"/><circle cx="-472.868" cy="-470.36" r="24.286" fill="#07b6b6" stroke="#000" stroke-width="1"/><circle cx="-415.811" cy="-387.885" r="27.143" fill="#07b6b6" stroke="#000" stroke-width="1"/><circle cx="-608.147" cy="-345.295" r="25.714" fill="#07b6b6" stroke="#000" stroke-width="1"/><circle cx="-512.679" cy="-374.158" r="27.143" fill="#07b6b6" stroke="#000" stroke-width="1"/><circle cx="-573.411" cy="-436.381" r="25.714" fill="#07b6b6" stroke="#000" stroke-width="1"/><circle cx="-680.873" cy="-483.556" r="22.857" fill="#07b6b6" stroke="#000" stroke-width="1"/><circle cx="168.606" cy="-397.19" r="22.857" fill="#5f07b6" stroke="#000" stroke-width="1"/><circle cx="111.523" cy="-333.142" r="22.857" fill="#5f07b6" stroke="#000" stroke-width="1"/><circle cx="60.387" cy="-410.381" r="22.857" fill="#5f07b6" stroke="#000" stroke-width="1"/><circle cx="18.282" cy="-509.369" r="21.429" fill="#5f07b6" stroke="#000" stroke-width="1"/><circle cx="-110.059" cy="155.582" r="12.857" fill="#b68a07" stroke="#000" stroke-width="1"/><circle cx="-760.866" cy="-144.981" r="11.429" fill="#07b6b6" stroke="#000" stroke-width="1"/><circle cx="-743.164" cy="-103.544" r="11.429" fill="#07b6b6" stroke="#000" stroke-width="1"/><circle cx="126.309" cy="-492.025" r="18.571" fill="#5f07b6" stroke="#000" stroke-width="1"/><circle cx="-787.173" cy="-406.753" r="18.571" fill="#07b6b6" stroke="#000" stroke-width="1"/></g><g id="labels"><text x="553.03" y="-35.989" fill="#000" font-family="Arial" font-size="18" style="text-anchor:middle">Myriel</text><text x="455.295" y="-41.913" fill="#000" font-family="Arial" font-size="18" style="text-anchor:middle">MlleBaptistine</text><text x="476.119" y="-4.553" fill="#000" font-family="Arial" font-size="18" style="text-anchor:middle">MmeMagloire</text><text x="79.317" y="42.919" fill="#000" font-family="Arial" font-size="18" style="text-anchor:middle">Valjean</text><text x="172.62" y="399.541" fill="#000" font-family="Arial" font-size="18" style="text-anchor:middle">Marguerite</text><text x="-.847" y="639.833" fill="#000" font-family="Arial" font-size="18" style="text-anchor:middle">Tholomyes</text><text x="31.143" y="784.914" fill="#000" font-family="Arial" font-size="18" style="text-anchor:middle">Listolier</text><text x="99.264" y="772.927" fill="#000" font-family="Arial" font-size="18" style="text-anchor:middle">Fameuil</text><text x="-9.457" y="729.372" fill="#000" font-family="Arial" font-size="18" style="text-anchor:middle">Blacheville</text><text x="57.926" y="709.507" fill="#000" font-family="Arial" font-size="18" style="text-anchor:middle">Favourite</text><text x="92.408" y="650.473" fill="#000" font-family="Arial" font-size="18" style="text-anchor:middle">Dahlia</text><text x="136.357" y="708.208" fill="#000" font-family="Arial" font-size="18" style="text-anchor:middle">Zephine</text><text x="66.871" y="437.804" fill="#000" font-family="Arial" font-size="18" style="text-anchor:middle">Fantine</text><text x="114.948" y="-126.233" fill="#000" font-family="Arial" font-size="18" style="text-anchor:middle">MmeThenardier</text><text x="65.5" y="-218.799" fill="#000" font-family="Arial" font-size="18" style="text-anchor:middle">Thenardier</text><text x="-85.908" y="18.669" fill="#000" font-family="Arial" font-size="18" style="text-anchor:middle">Cosette</text><text x="-28.802" y="-81.993" fill="#000" font-family="Arial" font-size="18" style="text-anchor:middle">Javert</text><text x="241.33" y="62.764" fill="#000" font-family="Arial" font-size="18" style="text-anchor:middle">Fauchelevent</text><text x="330.093" y="319.666" fill="#000" font-family="Arial" font-size="18" style="text-anchor:middle">Bamatabois</text><text x="-63.231" y="452.505" fill="#000" font-family="Arial" font-size="18" style="text-anchor:middle">Perpetue</text><text x="10.525" y="299.629" fill="#000" font-family="Arial" font-size="18" style="text-anchor:middle">Simplice</text><text x="111.19" y="202.063" fill="#000" font-family="Arial" font-size="18" style="text-anchor:middle">Woman1</text><text x="408.769" y="218.987" fill="#000" font-family="Arial" font-size="18" style="text-anchor:middle">Judge</text><text x="413.957" y="286.502" fill="#000" font-family="Arial" font-size="18" style="text-anchor:middle">Champmathieu</text><text x="458.472" y="354.037" fill="#000" font-family="Arial" font-size="18" style="text-anchor:middle">Brevet</text><text x="519.267" y="305.613" fill="#000" font-family="Arial" font-size="18" style="text-anchor:middle">Chenildieu</text><text x="497.434" y="233.788" fill="#000" font-family="Arial" font-size="18" style="text-anchor:middle">Cochepaille</text><text x="-407.577" y="116.798" fill="#000" font-family="Arial" font-size="18" style="text-anchor:middle">Pontmercy</text><text x="-87.836" y="-361.783" fill="#000" font-family="Arial" font-size="18" style="text-anchor:middle">Eponine</text><text x="4.81" y="-329.302" fill="#000" font-family="Arial" font-size="18" style="text-anchor:middle">Anzelma</text><text x="-24.739" y="173.737" fill="#000" font-family="Arial" font-size="18" style="text-anchor:middle">Woman2</text><text x="312.542" y="85.781" fill="#000" font-family="Arial" font-size="18" style="text-anchor:middle">MotherInnocent</text><text x="-869.35" y="-154.726" fill="#000" font-family="Arial" font-size="18" style="text-anchor:middle">MmeBurgon</text><text x="-513.976" y="-215.067" fill="#000" font-family="Arial" font-size="18" style="text-anchor:middle">Gavroche</text><text x="-239.127" y="14.188" fill="#000" font-family="Arial" font-size="18" style="text-anchor:middle">Gillenormand</text><text x="-189.558" y="174.874" fill="#000" font-family="Arial" font-size="18" style="text-anchor:middle">Magnon</text><text x="-274.456" y="80.181" fill="#000" font-family="Arial" font-size="18" style="text-anchor:middle">MlleGillenormand</text><text x="-520.02" y="247.344" fill="#000" font-family="Arial" font-size="18" style="text-anchor:middle">MmePontmercy</text><text x="-331.119" y="168.562" fill="#000" font-family="Arial" font-size="18" style="text-anchor:middle">LtGillenormand</text><text x="-229.47" y="-114.826" fill="#000" font-family="Arial" font-size="18" style="text-anchor:middle">Marius</text><text x="-457.482" y="65.455" fill="#000" font-family="Arial" font-size="18" style="text-anchor:middle">BaronessT</text><text x="-437.938" y="-599.55" fill="#000" font-family="Arial" font-size="18" style="text-anchor:middle">Mabeuf</text><text x="-368.102" y="-303.678" fill="#000" font-family="Arial" font-size="18" style="text-anchor:middle">Enjolras</text><text x="-456.677" y="-310.58" fill="#000" font-family="Arial" font-size="18" style="text-anchor:middle">Combeferre</text><text x="-558.62" y="-534.685" fill="#000" font-family="Arial" font-size="18" style="text-anchor:middle">Prouvaire</text><text x="-472.868" y="-470.36" fill="#000" font-family="Arial" font-size="18" style="text-anchor:middle">Feuilly</text><text x="-415.811" y="-387.885" fill="#000" font-family="Arial" font-size="18" style="text-anchor:middle">Courfeyrac</text><text x="-608.147" y="-345.295" fill="#000" font-family="Arial" font-size="18" style="text-anchor:middle">Bahorel</text><text x="-512.679" y="-374.158" fill="#000" font-family="Arial" font-size="18" style="text-anchor:middle">Bossuet</text><text x="-573.411" y="-436.381" fill="#000" font-family="Arial" font-size="18" style="text-anchor:middle">Joly</text><text x="-680.873" y="-483.556" fill="#000" font-family="Arial" font-size="18" style="text-anchor:middle">Grantaire</text><text x="168.606" y="-397.19" fill="#000" font-family="Arial" font-size="18" style="text-anchor:middle">Gueulemer</text><text x="111.523" y="-333.142" fill="#000" font-family="Arial" font-size="18" style="text-anchor:middle">Babet</text><text x="60.387" y="-410.381" fill="#000" font-family="Arial" font-size="18" style="text-anchor:middle">Claquesous</text><text x="18.282" y="-509.369" fill="#000" font-family="Arial" font-size="18" style="text-anchor:middle">Montparnasse</text><text x="-110.059" y="155.582" fill="#000" font-family="Arial" font-size="18" style="text-anchor:middle">Toussaint</text><text x="-760.866" y="-144.981" fill="#000" font-family="Arial" font-size="18" style="text-anchor:middle">Child1</text><text x="-743.164" y="-103.544" fill="#000" font-family="Arial" font-size="18" style="text-anchor:middle">Child2</text><text x="126.309" y="-492.025" fill="#000" font-family="Arial" font-size="18" style="text-anchor:middle">Brujon</text><text x="-787.173" y="-406.753" fill="#000" font-family="Arial" font-size="18" style="text-anchor:middle">MmeHucheloup</text></g></svg>